:SAMPLES-PER-SECOND 30
:FULLY-SPECIFIED
:DEGREES
999
root  46.2735 29.4901 -0.870221 -156.767 87.2631 -157.433
RightUpLeg  -51.6618 -13.0551 -14.0942
RightLeg  70.0006 3.30841 9.27564
RightFoot  -17.0027 0.28584 8.09908
RightToes  -5.8209e-011 0 -3.6325e-017
Spine  63.0247 -3.15263 8.12233
Spine1  -20.0336 1.70985 2.34131
HEad  -24.7675 50.342 38.5978
LeftShoulder1  5.26304 -11.0411 -30.1727
LeftArm  -23.0596 -61.0071 -26.5626
LeftForeArm  -22.0158 -9.33452 -4.22807
LeftHand  -0.0238811 5.50906 3.05449
RightShoulder  1.99035 13.386 3.78801
RightArm  -27.6279 33.4194 35.5321
RightForeArm  17.8134 64.1787 22.2616
RightHand  -1.46773 1.38758 -24.9386
LeftUpLeg  -59.3689 21.1829 1.34184
LeftLeg  70.4613 -1.50282 -3.83393
LeftFoot  -10.0836 0.0196706 3.72989
LeftToes  -8.31281e-010 4.41007e-011 3.74621e-011
1000
root  45.9779 29.4406 -0.443408 -153.905 87.1292 -155.605
RightUpLeg  -53.588 -11.5727 -13.1772
RightLeg  70.2778 2.88405 8.13785
RightFoot  -16.4978 0.245763 7.93878
RightToes  -5.8209e-011 0 -3.6325e-017
Spine  64.3349 -2.9256 8.71596
Spine1  -21.7719 2.43646 0.846531
HEad  -26.9974 49.1471 37.7282
LeftShoulder1  5.59231 -12.5996 -28.6841
LeftArm  -24.3118 -59.4871 -26.146
LeftForeArm  -21.26 -12.2332 -3.77258
LeftHand  -0.0355688 4.97735 3.44683
RightShoulder  2.14713 13.3934 4.85228
RightArm  -29.0824 33.9003 32.5815
RightForeArm  12.5073 62.1922 20.7704
RightHand  -2.0426 3.99012 -25.1714
LeftUpLeg  -61.1169 22.4009 1.15075
LeftLeg  69.6455 -1.98084 -5.09176
LeftFoot  -8.57818 -0.039226 3.78018
LeftToes  -8.31281e-010 4.41007e-011 3.74621e-011
1001
root  45.6922 29.5289 0.101758 -152.284 86.9863 -155.015
RightUpLeg  -55.0177 -9.80105 -12.3034
RightLeg  69.9385 3.0877 8.5787
RightFoot  -16.4236 0.240046 7.88446
RightToes  -5.8209e-011 0 -3.6325e-017
Spine  64.4891 -2.92491 9.04683
Spine1  -21.5638 2.83188 -1.75859
HEad  -29.4062 48.0264 37.1306
LeftShoulder1  5.59804 -13.7774 -26.256
LeftArm  -27.0441 -59.8549 -23.4708
LeftForeArm  -21.1767 -14.6999 -3.74648
LeftHand  -0.0498334 4.42646 3.48478
RightShoulder  2.28952 12.4641 6.67308
RightArm  -31.6817 36.3745 29.8711
RightForeArm  10.0604 60.3224 19.2737
RightHand  -2.05349 4.28992 -24.4158
LeftUpLeg  -62.3416 23.607 1.08074
LeftLeg  67.9887 -2.60941 -6.30687
LeftFoot  -6.67899 -0.104983 3.5563
LeftToes  -8.31281e-010 4.41007e-011 3.74621e-011
1002
root  45.3727 29.8561 0.865827 -161.248 87.6163 -164.131
RightUpLeg  -55.3383 -6.6492 -12.3353
RightLeg  69.1391 4.08141 11.0128
RightFoot  -15.9183 0.169111 6.95392
RightToes  -5.8209e-011 0 -3.6325e-017
Spine  64.6814 -1.6063 7.70131
Spine1  -20.3934 3.70794 -3.07219
HEad  -31.319 47.1473 36.6006
LeftShoulder1  5.44067 -14.4504 -24.0604
LeftArm  -30.2626 -60.4419 -20.3949
LeftForeArm  -21.8773 -16.9321 -4.01943
LeftHand  -0.0941352 3.34569 4.42786
RightShoulder  2.25629 11.9073 7.02538
RightArm  -34.4915 38.5786 27.6329
RightForeArm  9.30737 59.2021 18.4091
RightHand  -1.73873 1.83149 -28.6439
LeftUpLeg  -61.533 25.6982 0.824743
LeftLeg  64.8536 -3.67646 -7.84781
LeftFoot  -4.34803 -0.163145 3.11168
LeftToes  -8.31281e-010 4.41007e-011 3.74621e-011
1003
root  45.183 30.1976 1.59013 -169.01 86.0499 -171.873
RightUpLeg  -54.2401 -5.91333 -11.9898
RightLeg  68.2518 5.42744 14.0796
RightFoot  -16.6649 0.181652 6.33379
RightToes  -5.8209e-011 0 -3.6325e-017
Spine  63.9716 -1.913 8.01612
Spine1  -19.1529 3.63985 -3.82975
HEad  -33.1934 46.4174 36.3286
LeftShoulder1  5.17242 -14.827 -21.866
LeftArm  -34.7936 -61.4973 -17.4032
LeftForeArm  -21.8175 -18.2854 -4.10892
LeftHand  -0.144185 2.71308 5.84529
RightShoulder  2.20499 11.259 7.35561
RightArm  -38.6931 40.6551 24.8121
RightForeArm  14.973 58.7189 17.451
RightHand  -0.480589 -3.76288 -31.9525
LeftUpLeg  -60.3286 24.9434 1.5713
LeftLeg  61.6459 -4.62473 -8.63248
LeftFoot  -2.12411 -0.141935 1.923
LeftToes  -8.31281e-010 4.41007e-011 3.74621e-011
1004
root  44.9508 30.6443 2.44196 -178.399 83.7935 178.207
RightUpLeg  -53.6407 -6.41486 -11.5566
RightLeg  66.8711 5.90146 14.2848
RightFoot  -16.3365 0.129868 5.49884
RightToes  -5.8209e-011 0 -3.6325e-017
Spine  61.9894 -2.30951 8.123
Spine1  -17.8085 3.15947 -4.48558
HEad  -34.4043 42.9214 34.2365
LeftShoulder1  4.82397 -15.3971 -18.9667
LeftArm  -40.0169 -61.3692 -15.7545
LeftForeArm  -19.9362 -20.1871 -4.47833
LeftHand  -0.159277 2.36188 5.77483
RightShoulder  2.12668 10.5243 7.62284
RightArm  -42.576 41.9637 22.5842
RightForeArm  18.7224 58.5492 16.9408
RightHand  -0.920896 -0.899067 -23.9407
LeftUpLeg  -59.153 23.4872 1.48055
LeftLeg  56.9915 -5.86613 -9.10611
LeftFoot  0.924637 -0.0657091 0.564502
LeftToes  -8.31281e-010 4.41007e-011 3.74621e-011
1005
root  44.726 31.2191 3.46659 178.215 80.8834 174
RightUpLeg  -53.1238 -8.19641 -10.2277
RightLeg  64.6502 5.51975 11.994
RightFoot  -14.9928 0.0366921 4.31233
RightToes  -5.8209e-011 0 -3.6325e-017
Spine  59.5275 -2.47043 7.81454
Spine1  -17.0412 2.58281 -4.70459
HEad  -34.3944 32.0499 23.8348
LeftShoulder1  4.62238 -15.6106 -17.5178
LeftArm  -44.1629 -61.3434 -14.0491
LeftForeArm  -19.4617 -22.2379 -5.38724
LeftHand  -0.173184 2.46501 6.50973
RightShoulder  2.155 9.72758 8.87787
RightArm  -45.6339 43.323 19.7468
RightForeArm  22.2401 58.5213 16.5654
RightHand  -1.34015 1.49887 -21.8252
LeftUpLeg  -57.5316 21.5852 1.36081
LeftLeg  50.7452 -7.50682 -9.27897
LeftFoot  4.6936 0.148657 -1.2369
LeftToes  -8.31281e-010 4.41007e-011 3.74621e-011
